<svg width="199" height="181" viewBox="0 0 199 181" fill="none" xmlns="http://www.w3.org/2000/svg">
<path d="M99.7278 180.94L0.753906 131.135L46.0292 62.0674L86.1076 0.94043H99.7085H113.309L153.388 62.0674L198.663 131.135L99.7085 180.94H99.7278ZM101.698 32.5762C101.698 34.3825 102.722 36.0343 104.336 36.8361L141.39 55.2283C141.748 55.4118 142.115 54.9965 141.902 54.6584L110.325 6.49479H101.698V32.5762ZM187.139 130.739L190.626 128.981L154.914 74.5188C154.702 74.1904 154.19 74.345 154.19 74.7314V111.979C154.19 113.448 155.02 114.79 156.334 115.438L187.139 130.729V130.739ZM45.324 113.496L13.4565 129.319C11.9979 130.043 11.9882 132.13 13.4565 132.864L15.2242 133.752C16.8954 134.593 18.866 134.603 20.5371 133.762L47.9032 120.181L99.8051 145.943L152.171 119.949C154.315 118.886 154.315 115.824 152.171 114.761L150.007 113.689C149.466 113.419 149.128 112.868 149.128 112.269V64.8108L102.568 41.7046C102.027 41.4342 101.689 40.8835 101.689 40.2846V38.43C101.689 37.0003 100.182 36.0633 98.8971 36.7009L49.613 61.169C46.9855 62.4731 45.324 65.1585 45.324 68.0951V113.506V113.496ZM51.1779 66.9456V110.511L96.5401 87.9942V44.4287L51.1779 66.9456ZM99.7085 138.834L144.482 116.606L99.7085 94.3793L54.9355 116.606L99.7085 138.834Z" fill="white"/>
</svg>
