<svg width="928" height="92" viewBox="0 0 928 92" fill="none" xmlns="http://www.w3.org/2000/svg">
<path d="M689.586 55.8503L664.971 43.6313L663.991 44.2387L663.245 43.5165L638.395 55.8503L637.415 57.4333L638.013 58.825L661.786 70.6232H663.991H666.195L689.964 58.825L690.567 57.4333L689.586 55.8503Z" fill="#95001A"/>
<path d="M637.415 57.4334L663.991 70.6233V71.7184L646.769 80.2694H644.56L637.415 76.673L636.434 75.2096V59.0116L637.415 57.4334Z" fill="#40004D"/>
<path d="M690.567 57.4334L664 70.6233V71.7184L681.222 80.2694H683.431L690.576 76.673L691.556 75.2096V59.0116L690.567 57.4334Z" fill="#520033"/>
<path d="M690.576 31.202L689.596 31.8141V55.8505L690.567 57.4334L691.557 59.0116L707.621 66.9839H709.825L712.991 65.3913L690.576 31.202Z" fill="#FFA80A"/>
<path d="M637.415 31.202L638.396 31.8141V55.8505L637.415 57.4334L636.435 59.0116L620.371 66.9839H618.166L615 65.3913L637.415 31.202Z" fill="#FF3417"/>
<path d="M637.415 76.673L618.166 66.9839L637.415 57.4334V76.673Z" fill="#6D0044"/>
<path d="M663.991 90.0446L683.417 80.2694L663.991 70.6233L644.56 80.2694L663.991 90.0446Z" fill="#6D0074"/>
<path d="M690.576 76.673L709.825 66.9839L690.567 57.4334L690.576 76.673Z" fill="#6D0044"/>
<path d="M663.996 0.943604H657.257L637.415 31.2019L638.395 31.814L663.991 19.1072V18.012L664.971 17.3281L664.976 1.79965L663.996 0.943604Z" fill="#FFA80A"/>
<path d="M663.991 18.0121L637.415 31.2019V57.4334L663.991 44.2388L664.971 43.6314V19.5903L663.991 18.0121Z" fill="#D7001F"/>
<path d="M663.995 0.943604H670.734L690.576 31.2019L689.596 31.814L664.971 19.5902L663.991 18.012L663.995 0.943604Z" fill="#FFE50A"/>
<path d="M690.566 57.4334L663.991 44.2388V18.0121L690.566 31.2019V57.4334Z" fill="#EF8109"/>
<path d="M872.433 27.1609L852.228 74.0762H843.112L822.907 27.1609H834.385L847.718 58.8108L860.96 27.1609H872.433ZM748.842 57.5195V9.68597H737.737V58.9877C737.737 68.5717 742.902 74.0714 752.452 74.0714H764.035V63.9853H754.016C750.956 63.9853 748.842 62.0102 748.842 57.5195ZM822.907 65.4775V74.2436C821.391 74.9131 819.449 75.2622 817.632 75.2622C811.735 75.2622 808.163 71.6276 807.268 67.2661L807.297 67.1609C804.385 72.9332 797.608 75.2622 791.348 75.2622C777.574 75.2622 767.933 64.4158 767.933 50.9198C767.933 37.4239 778.038 26.1422 791.348 26.1422C798.287 26.1422 803.222 28.959 806.254 34.3727V34.3584V27.1609H817.359V60.1786C817.359 62.1537 817.622 63.5549 818.148 64.3871C818.674 65.2192 819.554 65.6353 820.788 65.6353C821.419 65.6353 822.127 65.5827 822.916 65.4775H822.907ZM807.268 50.4798C807.268 42.125 800.726 36.2283 792.83 36.2283C783.352 36.2283 779.043 43.9662 779.043 50.9198C779.043 58.6243 784.935 64.7314 792.83 64.7314C800.726 64.7314 807.268 58.8299 807.268 50.4798ZM927.402 65.4775V74.2436C925.886 74.9131 923.945 75.2622 922.127 75.2622C916.231 75.2622 912.658 71.6276 911.764 67.2661L911.792 67.1609C908.88 72.9332 902.103 75.2622 895.843 75.2622C882.07 75.2622 872.429 64.4158 872.429 50.9198C872.429 37.4239 882.534 26.1422 895.843 26.1422C902.782 26.1422 907.718 28.959 910.75 34.3727V34.3584V27.1609H921.855V60.1786C921.855 62.1537 922.118 63.5549 922.644 64.3871C923.17 65.2192 924.05 65.6353 925.284 65.6353C925.915 65.6353 926.623 65.5827 927.412 65.4775H927.402ZM911.764 50.4798C911.764 42.125 905.221 36.2283 897.326 36.2283C887.847 36.2283 883.538 43.9662 883.538 50.9198C883.538 58.6243 889.43 64.7314 897.326 64.7314C905.221 64.7314 911.764 58.8299 911.764 50.4798Z" fill="white"/>
<path d="M19.2057 55.204V72H6.58974V17.812H34.2537C41.1697 17.812 46.5657 18.496 50.7457 19.788C59.0297 22.524 62.4497 27.996 62.4497 36.888C62.4497 49.124 53.6337 55.28 35.4697 55.204H19.2057ZM19.2057 28.528V44.488H34.7097C45.8057 44.488 49.6057 42.74 49.6057 36.812C49.6057 34.228 49.0737 32.48 47.9337 31.34C45.8057 28.984 41.3217 28.528 34.3297 28.528H19.2057ZM96.0334 73.444C89.1174 73.444 83.5694 72.532 79.3134 70.632C70.9534 66.984 67.4574 59.992 67.4574 50.492C67.4574 45.628 68.6734 41.448 71.0294 37.876C75.8174 30.732 84.7094 26.78 96.4134 26.78C102.417 26.78 107.433 27.692 111.841 29.592C120.581 33.392 125.445 40.384 125.445 50.492C125.445 55.052 124.457 59.004 122.329 62.5C118.225 69.416 109.789 73.444 96.0334 73.444ZM96.4134 62.88C108.041 62.88 112.297 58.548 112.297 50.492C112.297 41.752 107.661 37.192 96.5654 37.192C85.8494 37.192 80.6054 41.524 80.6054 50.492C80.6054 58.776 85.3174 62.88 96.4134 62.88ZM169.519 42.36L154.471 72H143.375L127.871 28.376H141.247L150.595 56.876L164.731 28.376H174.915L188.063 57.18L199.159 28.376H212.079L194.067 72H183.123L169.519 42.36ZM270.898 59.004C266.186 69.796 256.154 73.444 241.714 73.444C234.798 73.444 229.326 72.456 225.146 70.632C216.862 66.756 213.594 59.916 213.594 51.024C213.594 46.616 214.658 42.664 216.786 39.016C221.194 31.568 229.63 26.78 242.702 26.78C248.782 26.78 253.798 27.692 258.206 29.592C266.794 33.392 271.43 40.384 271.43 50.188V54.824H225.83C227.35 60.524 232.214 63.488 242.778 63.488C250.758 63.488 254.558 61.968 256.686 59.004H270.898ZM243.082 36.66C233.43 36.66 227.958 39.928 226.134 45.628H258.662C257.218 39.244 252.43 36.66 243.082 36.66ZM279.246 72V28.376H290.418L291.862 40.536C294.218 32.708 299.538 27.92 309.646 27.92H315.194V40.536H309.342C304.782 40.536 301.286 40.992 298.854 42.132C293.99 44.26 292.394 48.972 292.394 57.56V72H279.246ZM376.511 59.004C371.799 69.796 361.767 73.444 347.327 73.444C340.411 73.444 334.939 72.456 330.759 70.632C322.475 66.756 319.207 59.916 319.207 51.024C319.207 46.616 320.271 42.664 322.399 39.016C326.807 31.568 335.243 26.78 348.315 26.78C354.395 26.78 359.411 27.692 363.819 29.592C372.407 33.392 377.043 40.384 377.043 50.188V54.824H331.443C332.963 60.524 337.827 63.488 348.391 63.488C356.371 63.488 360.171 61.968 362.299 59.004H376.511ZM348.695 36.66C339.043 36.66 333.571 39.928 331.747 45.628H364.275C362.831 39.244 358.043 36.66 348.695 36.66ZM428.918 63.716C425.65 69.948 419.038 73.292 408.854 73.292C404.142 73.292 399.962 72.532 396.162 71.012C388.638 67.972 383.926 61.436 383.926 50.568C383.926 45.552 384.914 41.372 387.042 37.8C391.222 30.808 398.898 26.932 409.386 26.932C417.822 26.932 424.51 29.82 428.31 35.52V14.24H440.926V72H429.83L428.918 63.716ZM412.73 62.88C423.522 62.88 428.766 58.776 428.766 50.492C428.766 41.904 422.99 37.192 412.806 37.192C401.71 37.192 397.074 41.98 397.074 50.568C397.074 59.004 401.634 62.88 412.73 62.88ZM471.867 72V17.812H501.887C519.899 17.812 528.639 21.156 528.639 32.024V32.48C528.639 39.472 525.219 42.588 517.467 44.032C526.207 45.248 530.007 48.288 530.007 55.964V56.268C530.007 60.22 528.943 63.412 526.815 65.616C522.559 70.176 514.427 72 502.419 72H471.867ZM484.255 27.844V39.244H503.103C505.763 39.244 507.891 39.168 509.943 38.94C513.819 38.408 516.099 37.04 516.099 33.772V33.468C516.099 31.72 515.643 30.504 514.731 29.668C512.907 28.148 509.183 27.844 502.647 27.844H484.255ZM484.255 49.124V61.36H500.823C505.307 61.36 508.575 61.208 510.931 60.828C515.643 60.22 517.011 58.624 517.011 55.432V55.128C517.011 53.38 516.555 52.088 515.643 51.252C513.895 49.504 509.715 49.124 501.735 49.124H484.255ZM536.207 91.608V80.436H542.515C545.099 80.436 547.075 80.208 548.595 79.6C551.787 78.612 553.687 76.256 555.891 72.38L557.335 69.796L533.547 28.376H547.683L563.567 57.028L564.099 58.396L564.631 57.18L580.439 28.376H594.347L567.823 74.66C563.643 81.956 560.603 86.212 557.031 88.644C553.383 91 548.899 91.608 541.907 91.608H536.207Z" fill="white"/>
</svg>
