<svg width="955" height="97" viewBox="0 0 955 97" fill="none" xmlns="http://www.w3.org/2000/svg">
<path d="M894.807 28.6899L873.026 79.2614H863.201L841.421 28.6899H853.793L868.165 62.8063L882.44 28.6899H894.807ZM761.584 61.4144V9.85321H749.614V62.997C749.614 73.3278 755.181 79.2562 765.476 79.2562H777.961V68.3841H767.162C763.862 68.3841 761.584 66.2551 761.584 61.4144ZM841.421 69.9925V79.4418C839.786 80.1635 837.693 80.5398 835.735 80.5398C829.378 80.5398 825.527 76.6219 824.563 71.9205L824.594 71.8071C821.455 78.0293 814.15 80.5398 807.402 80.5398C792.556 80.5398 782.163 68.8481 782.163 54.3004C782.163 39.7527 793.056 27.5919 807.402 27.5919C814.882 27.5919 820.202 30.6282 823.471 36.4638V36.4483V28.6899H835.441V64.2807C835.441 66.4097 835.724 67.9202 836.291 68.8171C836.858 69.7141 837.807 70.1626 839.137 70.1626C839.817 70.1626 840.58 70.1059 841.431 69.9925H841.421ZM824.563 53.8261C824.563 44.8202 817.511 38.464 809 38.464C798.783 38.464 794.138 46.8049 794.138 54.3004C794.138 62.6053 800.489 69.1883 809 69.1883C817.511 69.1883 824.563 62.8269 824.563 53.8261ZM954.059 69.9925V79.4418C952.425 80.1635 950.332 80.5398 948.373 80.5398C942.017 80.5398 938.166 76.6219 937.202 71.9205L937.233 71.8071C934.094 78.0293 926.789 80.5398 920.041 80.5398C905.194 80.5398 894.802 68.8481 894.802 54.3004C894.802 39.7527 905.694 27.5919 920.041 27.5919C927.521 27.5919 932.841 30.6282 936.109 36.4638V36.4483V28.6899H948.079V64.2807C948.079 66.4097 948.363 67.9202 948.93 68.8171C949.497 69.7141 950.446 70.1626 951.776 70.1626C952.456 70.1626 953.219 70.1059 954.07 69.9925H954.059ZM937.202 53.8261C937.202 44.8202 930.15 38.464 921.639 38.464C911.422 38.464 906.777 46.8049 906.777 54.3004C906.777 62.6053 913.128 69.1883 921.639 69.1883C930.15 69.1883 937.202 62.8269 937.202 53.8261Z" fill="white"/>
<path d="M669.838 96.4739L617.027 69.8986L641.185 33.0456L662.57 0.429443H669.828H677.085L698.47 33.0456L722.628 69.8986L669.828 96.4739H669.838ZM670.889 17.3097C670.889 18.2735 671.436 19.1549 672.297 19.5827L692.068 29.3964C692.259 29.4943 692.455 29.2727 692.341 29.0923L675.492 3.39314H670.889V17.3097ZM716.479 69.6873L718.34 68.7492L699.284 39.6895C699.171 39.5142 698.898 39.5967 698.898 39.8028V59.6777C698.898 60.4611 699.341 61.1776 700.042 61.5229L716.479 69.6821V69.6873ZM640.809 60.4869L623.805 68.9296C623.027 69.3161 623.022 70.4295 623.805 70.8212L624.748 71.2954C625.64 71.7438 626.692 71.749 627.583 71.3005L642.185 64.0536L669.879 77.8001L697.82 63.9299C698.965 63.363 698.965 61.7291 697.82 61.1621L696.666 60.59C696.377 60.4457 696.197 60.1519 696.197 59.8323V34.5094L671.353 22.1804C671.065 22.0361 670.884 21.7423 670.884 21.4228V20.4331C670.884 19.6703 670.08 19.1703 669.395 19.5105L643.098 32.5663C641.696 33.2621 640.809 34.695 640.809 36.2619V60.4921V60.4869ZM643.933 35.6485V58.8942L668.137 46.8796V23.6339L643.933 35.6485ZM669.828 74.0065L693.718 62.1466L669.828 50.2866L645.938 62.1466L669.828 74.0065Z" fill="white"/>
<path d="M19.2057 58.4509V75.2469H6.58974V21.0589H34.2537C41.1697 21.0589 46.5657 21.7429 50.7457 23.0349C59.0297 25.7709 62.4497 31.2429 62.4497 40.1349C62.4497 52.3709 53.6337 58.5269 35.4697 58.4509H19.2057ZM19.2057 31.7749V47.7349H34.7097C45.8057 47.7349 49.6057 45.9869 49.6057 40.0589C49.6057 37.4749 49.0737 35.7269 47.9337 34.5869C45.8057 32.2309 41.3217 31.7749 34.3297 31.7749H19.2057ZM96.0334 76.6909C89.1174 76.6909 83.5694 75.7789 79.3134 73.8789C70.9534 70.2309 67.4574 63.2389 67.4574 53.7389C67.4574 48.8749 68.6734 44.6949 71.0294 41.1229C75.8174 33.9789 84.7094 30.0269 96.4134 30.0269C102.417 30.0269 107.433 30.9389 111.841 32.8389C120.581 36.6389 125.445 43.6309 125.445 53.7389C125.445 58.2989 124.457 62.2509 122.329 65.7469C118.225 72.6629 109.789 76.6909 96.0334 76.6909ZM96.4134 66.1269C108.041 66.1269 112.297 61.7949 112.297 53.7389C112.297 44.9989 107.661 40.4389 96.5654 40.4389C85.8494 40.4389 80.6054 44.7709 80.6054 53.7389C80.6054 62.0229 85.3174 66.1269 96.4134 66.1269ZM169.519 45.6069L154.471 75.2469H143.375L127.871 31.6229H141.247L150.595 60.1229L164.731 31.6229H174.915L188.063 60.4269L199.159 31.6229H212.079L194.067 75.2469H183.123L169.519 45.6069ZM270.898 62.2509C266.186 73.0429 256.154 76.6909 241.714 76.6909C234.798 76.6909 229.326 75.7029 225.146 73.8789C216.862 70.0029 213.594 63.1629 213.594 54.2709C213.594 49.8629 214.658 45.9109 216.786 42.2629C221.194 34.8149 229.63 30.0269 242.702 30.0269C248.782 30.0269 253.798 30.9389 258.206 32.8389C266.794 36.6389 271.43 43.6309 271.43 53.4349V58.0709H225.83C227.35 63.7709 232.214 66.7349 242.778 66.7349C250.758 66.7349 254.558 65.2149 256.686 62.2509H270.898ZM243.082 39.9069C233.43 39.9069 227.958 43.1749 226.134 48.8749H258.662C257.218 42.4909 252.43 39.9069 243.082 39.9069ZM279.246 75.2469V31.6229H290.418L291.862 43.7829C294.218 35.9549 299.538 31.1669 309.646 31.1669H315.194V43.7829H309.342C304.782 43.7829 301.286 44.2389 298.854 45.3789C293.99 47.5069 292.394 52.2189 292.394 60.8069V75.2469H279.246ZM376.511 62.2509C371.799 73.0429 361.767 76.6909 347.327 76.6909C340.411 76.6909 334.939 75.7029 330.759 73.8789C322.475 70.0029 319.207 63.1629 319.207 54.2709C319.207 49.8629 320.271 45.9109 322.399 42.2629C326.807 34.8149 335.243 30.0269 348.315 30.0269C354.395 30.0269 359.411 30.9389 363.819 32.8389C372.407 36.6389 377.043 43.6309 377.043 53.4349V58.0709H331.443C332.963 63.7709 337.827 66.7349 348.391 66.7349C356.371 66.7349 360.171 65.2149 362.299 62.2509H376.511ZM348.695 39.9069C339.043 39.9069 333.571 43.1749 331.747 48.8749H364.275C362.831 42.4909 358.043 39.9069 348.695 39.9069ZM428.918 66.9629C425.65 73.1949 419.038 76.5389 408.854 76.5389C404.142 76.5389 399.962 75.7789 396.162 74.2589C388.638 71.2189 383.926 64.6829 383.926 53.8149C383.926 48.7989 384.914 44.6189 387.042 41.0469C391.222 34.0549 398.898 30.1789 409.386 30.1789C417.822 30.1789 424.51 33.0669 428.31 38.7669V17.4869H440.926V75.2469H429.83L428.918 66.9629ZM412.73 66.1269C423.522 66.1269 428.766 62.0229 428.766 53.7389C428.766 45.1509 422.99 40.4389 412.806 40.4389C401.71 40.4389 397.074 45.2269 397.074 53.8149C397.074 62.2509 401.634 66.1269 412.73 66.1269ZM471.867 75.2469V21.0589H501.887C519.899 21.0589 528.639 24.4029 528.639 35.2709V35.7269C528.639 42.7189 525.219 45.8349 517.467 47.2789C526.207 48.4949 530.007 51.5349 530.007 59.2109V59.5149C530.007 63.4669 528.943 66.6589 526.815 68.8629C522.559 73.4229 514.427 75.2469 502.419 75.2469H471.867ZM484.255 31.0909V42.4909H503.103C505.763 42.4909 507.891 42.4149 509.943 42.1869C513.819 41.6549 516.099 40.2869 516.099 37.0189V36.7149C516.099 34.9669 515.643 33.7509 514.731 32.9149C512.907 31.3949 509.183 31.0909 502.647 31.0909H484.255ZM484.255 52.3709V64.6069H500.823C505.307 64.6069 508.575 64.4549 510.931 64.0749C515.643 63.4669 517.011 61.8709 517.011 58.6789V58.3749C517.011 56.6269 516.555 55.3349 515.643 54.4989C513.895 52.7509 509.715 52.3709 501.735 52.3709H484.255ZM536.207 94.8549V83.6829H542.515C545.099 83.6829 547.075 83.4549 548.595 82.8469C551.787 81.8589 553.687 79.5029 555.891 75.6269L557.335 73.0429L533.547 31.6229H547.683L563.567 60.2749L564.099 61.6429L564.631 60.4269L580.439 31.6229H594.347L567.823 77.9069C563.643 85.2029 560.603 89.4589 557.031 91.8909C553.383 94.2469 548.899 94.8549 541.907 94.8549H536.207Z" fill="white"/>
</svg>
